# xmcd
#
# Track frame offsets: 
#        150
#        13251
#        30416
#        47291
#        67051
#        82016
#        94548
#        109751
#        140446
#        155518
#        166453
#        180207
#        201637
#        221137
#        235764
#        255321
#        278679
#        297052
#        309153
#        320562
#
# Disc length: 4442 seconds
#
# Revision: 0
# Processed by: cddbd v1.4PL0 Copyright (c) Steve Scherf et al.
# Submitted via: ExactAudioCopy v0.90b4
#
DISCID=11115814
DTITLE=ZZ Top - Rio Grande Mud [1972] and El Loco [1981]
DYEAR=1900
DGENRE=
TTITLE0=Francine
TTITLE1=Just Got Paid
TTITLE2=Mushmouth Shoutin'
TTITLE3=Ko Ko Blue
TTITLE4=Chevrolet
TTITLE5=Apologies To Pearly
TTITLE6=Bar-B-Q
TTITLE7=Sure Got Cold After The Rain Fell
TTITLE8=Whiskey'n Mama
TTITLE9=Down Brownie
TTITLE10=Tube Shake Boogie
TTITLE11=I Wanna Drive You Home
TTITLE12=Ten Foot Pole
TTITLE13=Leila
TTITLE14=Don't Tease Me
TTITLE15=It's So Hard
TTITLE16=Pearl Necklace
TTITLE17=Groovy Little Hippie Pad
TTITLE18=Heaven, Hell Or Houston
TTITLE19=Party On The Patio
EXTD=
EXTT0=
EXTT1=
EXTT2=
EXTT3=
EXTT4=
EXTT5=
EXTT6=
EXTT7=
EXTT8=
EXTT9=
EXTT10=
EXTT11=
EXTT12=
EXTT13=
EXTT14=
EXTT15=
EXTT16=
EXTT17=
EXTT18=
EXTT19=
PLAYORDER=
